<svg width="90" height="100" viewBox="0 0 90 100" fill="none" xmlns="http://www.w3.org/2000/svg">
  <path d="M68.5 15H22C14.268 15 8 21.268 8 29V57C8 64.732 14.268 71 22 71H38L52 85V71H68.5C76.232 71 82.5 64.732 82.5 57V29C82.5 21.268 76.232 15 68.5 15Z" fill="url(#paint0_linear)"/>
  <path d="M45.25 33.5C45.25 36.8137 42.5637 39.5 39.25 39.5C35.9363 39.5 33.25 36.8137 33.25 33.5C33.25 30.1863 35.9363 27.5 39.25 27.5C42.5637 27.5 45.25 30.1863 45.25 33.5Z" fill="white"/>
  <path d="M64.25 52.5C64.25 55.8137 61.5637 58.5 58.25 58.5C54.9363 58.5 52.25 55.8137 52.25 52.5C52.25 49.1863 54.9363 46.5 58.25 46.5C61.5637 46.5 64.25 49.1863 64.25 52.5Z" fill="white"/>
  <path d="M26.25 52.5C26.25 55.8137 23.5637 58.5 20.25 58.5C16.9363 58.5 14.25 55.8137 14.25 52.5C14.25 49.1863 16.9363 46.5 20.25 46.5C23.5637 46.5 26.25 49.1863 26.25 52.5Z" fill="white"/>
  <path d="M39.25 39.5L20.25 52.5" stroke="white" stroke-width="3"/>
  <path d="M39.25 39.5L58.25 52.5" stroke="white" stroke-width="3"/>
  <defs>
    <linearGradient id="paint0_linear" x1="8" y1="15" x2="82.5" y2="85" gradientUnits="userSpaceOnUse">
      <stop stop-color="#00E5FF"/>
      <stop offset="1" stop-color="#3B00D3"/>
    </linearGradient>
  </defs>
</svg>
